PathFileType	4	(X/Y/Z)	/Users/visionmauri/Downloads/Videos/OAW03-top_Sports2D/OAW03-top_Sports2D_m_person00.trc
DataRate	CameraRate	NumFrames	NumMarkers	Units	OrigDataRate	OrigDataStartFrame	OrigNumFrames
30.0	30.0	8	22	m	30.0	536	2146
Frame#	Time	Hip			RHip			RKnee			RAnkle			RBigToe			RSmallToe			RHeel			LHip			LKnee			LAnkle			LBigToe			LSmallToe			LHeel			Neck			Head			Nose			RShoulder			RElbow			RWrist			LShoulder			LElbow			LWrist			
		X1	Y1	Z1	X2	Y2	Z2	X3	Y3	Z3	X4	Y4	Z4	X5	Y5	Z5	X6	Y6	Z6	X7	Y7	Z7	X8	Y8	Z8	X9	Y9	Z9	X10	Y10	Z10	X11	Y11	Z11	X12	Y12	Z12	X13	Y13	Z13	X14	Y14	Z14	X15	Y15	Z15	X16	Y16	Z16	X17	Y17	Z17	X18	Y18	Z18	X19	Y19	Z19	X20	Y20	Z20	X21	Y21	Z21	X22	Y22	Z22
536	17.874996114996115	2.5447728161645915	0.06300515859423694	0.0301	2.620416404362791	0.1637402005022401	0.0301	2.8600922453911166	-0.014451880916601099	0.129	3.0804176986002867	-0.20614452336746095	0.023	3.101822215087939	-0.2530881999710467	0.2179	3.1263609398410206	-0.19899653475165086	0.1804	3.117279642748947	-0.25252779050683777	-0.0119	2.4573538413563725	-0.023393463687199984	0.0301	2.8260817776276466	-0.270491436260642	0.129	3.1844281825971565	-0.5107591850006675	0.023	3.287753082657791	-0.557449701582157	0.2179	3.2617055062588234	-0.6202069064368639	0.1804	3.2649524860550194	-0.5728796937267571	-0.0119	2.0787645599746853	0.5034439557168435	0.0008	1.8258050305154598	0.6572357779063173	0.0655	1.9879914161225352	0.5575656698139249	0.1076	2.280735887670742	0.6162612923067676	-0.01275	2.5948154747277017	0.4347026369340274	0.0702	2.848195712885098	0.2866534957738193	0.1076	1.995741901948637	0.30450345640527565	-0.01275	2.191122401721844	0.03614094962345563	0.0702	2.357908130035231	-0.04307119027972236	0.1076
537	17.90834498834499	2.5379259432823646	0.07403114598631105	0.0301	2.6112069085452894	0.17167211999166407	0.0301	2.8563225132486263	-0.012422847433744033	0.129	3.0818098134767045	-0.2106088807958021	0.023	3.100736215189786	-0.2533799961071744	0.2179	3.131901763116803	-0.2018215581414237	0.1804	3.1267352294100346	-0.2645163218715979	-0.0119	2.449756910004532	-0.0088965280544095	0.0301	2.8102870367775754	-0.25572880865973185	0.129	3.1549096537857064	-0.49636033228126014	0.023	3.2679294333198086	-0.5447510994910281	0.2179	3.2390590647389135	-0.6082775620951395	0.1804	3.2351968708740757	-0.55975765169382	-0.0119	2.0806015657150083	0.5160178378443868	0.0008	1.8333826423139397	0.6673701731902718	0.0655	1.9979933695138565	0.5656428078988642	0.1076	2.2831966118045313	0.6222097947901539	-0.01275	2.592894919073795	0.441436869490346	0.0702	2.8435721041612174	0.29219830637878647	0.1076	1.9984002822796756	0.31870858061042184	-0.01275	2.1892138808137656	0.050404293190426566	0.0702	2.346077711436268	-0.023533902102180128	0.1076
538	17.94169386169386	2.5278330533797995	0.08715265695147806	0.0301	2.598786157082425	0.18204494743472704	0.0301	2.858942848070531	-0.00949598522272007	0.129	3.08158684088319	-0.21800790289856414	0.023	3.1138928278716946	-0.26063905869337634	0.2179	3.152337779045938	-0.2105857068737225	0.1804	3.1387757284343936	-0.28411007337291394	-0.0119	2.4392513098309956	0.006363844090748246	0.0301	2.793891084224971	-0.23972535325844566	0.129	3.118307769556513	-0.4768399065244206	0.023	3.245631627558681	-0.529159074456129	0.2179	3.208584044461877	-0.5950575307443511	0.1804	3.1956740297876087	-0.5431065518202461	-0.0119	2.0822702759375793	0.5302262570771177	0.0008	1.8447761528382662	0.6809670943582231	0.0655	2.010521330556617	0.5778054748958711	0.1076	2.282586182190636	0.631007257819325	-0.01275	2.587273331820597	0.45161660420438565	0.0702	2.8319295651037875	0.300572954662167	0.1076	1.9972413193510725	0.3379826875040038	-0.01275	2.180406705605514	0.0679596268433233	0.0702	2.3377557891430207	-0.017457575085018565	0.1076
539	17.975042735042734	2.5152720444697474	0.10573955309420002	0.0301	2.5856408736943504	0.1995241535879307	0.0301	2.8650036559890006	-0.004426064864495925	0.129	3.083106673195422	-0.22633476806335448	0.023	3.131309871085183	-0.2782096228608615	0.2179	3.174891508278015	-0.22929277287288807	0.1804	3.1459700599246854	-0.2996419501458954	-0.0119	2.427233285493058	0.02628188127148293	0.0301	2.7735552474960214	-0.22137566567047343	0.129	3.0767810355550638	-0.4504642302671816	0.023	3.2150854475118975	-0.509642273570402	0.2179	3.167775679180202	-0.5781121726492543	0.1804	3.1539263534450344	-0.5185299064993047	-0.0119	2.085317429817781	0.543150622852144	0.0008	1.857829277083493	0.6989874015452798	0.0655	2.024646585003984	0.5968950977803088	0.1076	2.27882315686829	0.6418032296364045	-0.01275	2.57738821965326	0.46389987203662836	0.0702	2.811760846875115	0.3120781021503158	0.1076	1.991195410140075	0.35692137465754886	-0.01275	2.1690909048515135	0.08666169745874944	0.0702	2.3327148811463347	-0.015118186985068805	0.1076
540	18.00839160839161	2.5056904681653793	0.12809501151881497	0.0301	2.575095955341529	0.22137447973447197	0.0301	2.8666008936503022	0.0024805653982563087	0.129	3.084730821102272	-0.22897076878266187	0.023	3.1404223161690825	-0.2981204087924316	0.2179	3.188397359536177	-0.24979935043716042	0.1804	3.1451986973532273	-0.3011419491519749	-0.0119	2.419373407122672	0.048640193243277556	0.0301	2.7485253155753866	-0.1971626025903173	0.129	3.0324917417368367	-0.41671184657320925	0.023	3.171258726508311	-0.4807591018840635	0.2179	3.1164842495321907	-0.552054239498636	0.1804	3.1131233121825623	-0.4844450867737794	-0.0119	2.084815489864907	0.5543592162900945	0.0008	1.8640835193227672	0.7139659266281221	0.0655	2.032529256990244	0.6194172800017655	0.1076	2.272270761926076	0.6514709760491207	-0.01275	2.5647528290965633	0.4764886788731495	0.0702	2.786991991086292	0.3269910580162691	0.1076	1.9823968217788945	0.36965793718399553	-0.01275	2.158493606631996	0.10214978785220691	0.0702	2.329495829025396	-0.013977272034047444	0.1076
541	18.041740481740483	2.4998000758339565	0.14984791264524322	0.0301	2.5667666872916812	0.24222553881943504	0.0301	2.859607817382807	0.010657825045947733	0.129	3.0812236156979527	-0.22185450433549112	0.023	3.1384067332011405	-0.3101436773509903	0.2179	3.1921115454561053	-0.2604670816245273	0.1804	3.139914181373971	-0.29105187389211457	-0.0119	2.4167667734037424	0.06853856380079155	0.0301	2.7223090003467103	-0.16719630300691427	0.129	2.9905280689302987	-0.3790716180609954	0.023	3.121812654546486	-0.444787781040347	0.2179	3.0653356728550456	-0.5176220566117685	0.1804	3.0752001793888932	-0.44625834414145354	-0.0119	2.0745357880836384	0.5642032550055396	0.0008	1.8567184769745642	0.7185974264405703	0.0655	2.022057196146411	0.6343609991069957	0.1076	2.262737822458596	0.6598354532449106	-0.01275	2.5493802823695564	0.4906153180043776	0.0702	2.7626238508371683	0.3448548866139893	0.1076	1.973545289361124	0.3756406695891514	-0.01275	2.148747582927566	0.11274481240448371	0.0702	2.3254918589478732	-0.015543919038902225	0.1076
542	18.075089355089354	2.4924735950721595	0.1683659547445002	0.0301	2.5577210532222403	0.2596446376677916	0.0301	2.8469239101687673	0.019025767037275845	0.129	3.071641280844409	-0.2092436795482227	0.023	3.1321733555860756	-0.314492256019106	0.2179	3.1902949456695104	-0.25926737936193645	0.1804	3.1341321839132625	-0.2790182300931377	-0.0119	2.413073702732841	0.08475811565701007	0.0301	2.6999507019957867	-0.13905296690468882	0.129	2.958990212826273	-0.3456743875411716	0.023	3.079746642379347	-0.41212234586638347	0.2179	3.0267837666896744	-0.4824762616628903	0.1804	3.0454337362962525	-0.4123292590608032	-0.0119	2.058458993798548	0.5720275572594509	0.0008	1.8421335800273337	0.7190427100183483	0.0655	1.996746333607805	0.638616914959234	0.1076	2.251200339893509	0.6691624121188261	-0.01275	2.5312507025654654	0.5066481608314483	0.0702	2.7398531648329225	0.36300899292310557	0.1076	1.96520413295546	0.37982766682964847	-0.01275	2.1383752500643647	0.12078402998897227	0.0702	2.316708500705474	-0.019498069488058718	0.1076
543	18.108438228438228	2.4812828293881357	0.18215721063560852	0.0301	2.5472247703742865	0.2728119773997201	0.0301	2.833992877101535	0.025814398742110674	0.129	3.0603542169801856	-0.19825314377850992	0.023	3.128333060202684	-0.3171238491364411	0.2179	3.1868907770803556	-0.25365652498917346	0.1804	3.1281643407177406	-0.27110760046271176	-0.0119	2.4039202742169974	0.0978911507439344	0.0301	2.6842228092396994	-0.11902150578259589	0.129	2.9403897933291456	-0.32081790977681524	0.023	3.0470284326799724	-0.38682127217633056	0.2179	3.000618523649005	-0.45138511988516006	0.1804	3.0256732678593545	-0.38436462565460866	-0.0119	2.0452685730871605	0.5784001448055498	0.0008	1.830887112273746	0.7228850846957324	0.0655	1.9747472033843512	0.6386996589428104	0.1076	2.2401885638632617	0.6800736187576529	-0.01275	2.5134160644062473	0.521456713156611	0.0702	2.7187904867632655	0.37735626243554876	0.1076	1.9572885883388242	0.3868035124998956	-0.01275	2.1273693947738175	0.12868916089741508	0.0702	2.3026025734454074	-0.02470941257225364	0.1076
